<?xml version="1.0" encoding="UTF-8"?>
<svg id="Layer_2" data-name="Layer 2" xmlns="http://www.w3.org/2000/svg" viewBox="0 0 551.67 551.41">
  <g id="Layer_1-2" data-name="Layer 1">
    <g>
      <path d="M141.07,0C230.8,0,320.54,0,410.27,0c1.74.32,3.47.76,5.23.95,15.07,1.66,29.83,5,43.49,11.46,59.22,28,91.15,74.89,92.07,140.47,1.15,81.82.34,163.67.24,245.51-.04,31.71-8.57,61.1-27,86.95-31.24,43.83-74.26,65.81-128.07,65.95-80.4.21-160.8.15-241.2-.07-10.35-.03-20.95-.58-31.01-2.8-62.43-13.78-102.36-51.75-119.5-113.36-2.24-8.06-3.05-16.51-4.53-24.78,0-89.74,0-179.47,0-269.21.9-5.64,1.49-11.34,2.74-16.9C16.77,61.69,54.61,21.66,116.34,4.52,124.38,2.28,132.81,1.47,141.07,0ZM48.87,275.12c0,40.01-.03,80.03.02,120.04.01,12.61,1.28,25.06,5.54,37.04,15.54,43.63,53.17,70.13,100.51,70.22,80.39.15,160.77.27,241.16-.2,12-.07,24.55-1.74,35.88-5.55,44.1-14.85,70.39-53.02,70.45-100.67.1-80.21.25-160.42-.21-240.62-.07-12.01-1.71-24.56-5.5-35.89-14.69-43.87-52.78-70.43-100.06-70.55-80.75-.2-161.49-.15-242.24,0-35.93.06-64.97,14.42-86.3,43.52-13.74,18.74-19.3,40.12-19.27,63.18.06,39.83.02,79.67.02,119.5Z"/>
      <path d="M417.75,275.89c-.28,78.22-64.62,142.31-142.44,141.86-78.35-.45-142.34-64.82-141.73-142.57.62-78.24,64.33-141.7,142.16-141.6,78.12.11,142.28,64.4,142,142.3ZM368.74,275.6c-.1-51.37-41.89-93.1-93.14-93-51.38.1-93.1,41.88-93,93.14.1,51.38,41.88,93.1,93.14,93,51.37-.1,93.1-41.89,93-93.14Z"/>
      <path d="M423.52,163.75c-19.49-.1-35.6-16.21-35.69-35.67-.09-19.64,16.33-35.93,36.07-35.79,19.61.14,35.58,16.08,35.69,35.63.11,19.57-16.36,35.93-36.06,35.83Z"/>
    </g>
  </g>
</svg>