<?xml version="1.0" encoding="UTF-8"?><svg id="Layer_2" xmlns="http://www.w3.org/2000/svg" viewBox="0 0 91.63 9.04"><defs><style>.cls-1{fill:#010101;}</style></defs><g id="Layer_1-2"><path class="cls-1" d="m73.04,0h.75v3.74h-.75V0Z"/><path class="cls-1" d="m74.51,1.07h.71v.67s.02,0,.02,0c.07-.42.42-.75.88-.75.66,0,.92.41.92,1.14v1.62h-.72v-1.54c0-.41-.19-.63-.53-.63-.37,0-.57.36-.57.76v1.41h-.71V1.07Z"/><path class="cls-1" d="m77.55,2.41c0-.89.59-1.42,1.4-1.42s1.36.45,1.36,1.33c0,.11-.01.19-.02.25h-2.05c.02.49.35.71.73.71.28,0,.54-.12.62-.4h.69c-.1.64-.65.96-1.34.96s-1.38-.47-1.38-1.42Zm2.04-.26c0-.39-.25-.65-.65-.65s-.66.26-.68.65h1.33Z"/><path class="cls-1" d="m80.67,2.87h.74c0,.26.16.47.47.47.29,0,.44-.12.44-.3s-.12-.28-.41-.33l-.28-.05c-.51-.09-.84-.36-.84-.81,0-.56.45-.87,1.16-.87.75,0,1.16.35,1.16.97h-.73c0-.26-.16-.47-.45-.47s-.44.13-.44.32c0,.16.12.27.4.32l.28.05c.58.1.87.34.87.83s-.46.83-1.19.83-1.18-.27-1.18-.96Z"/><path class="cls-1" d="m72.72,5.18h.81l1.12,3.03h0l1.12-3.03h.8l-1.48,3.74h-.9l-1.48-3.74Z"/><path class="cls-1" d="m76.95,5.18h.72v.72h-.72v-.72Zm0,1.07h.72v2.67h-.72v-2.67Z"/><path class="cls-1" d="m78.26,8.16v-2.97h.7v2.85c0,.19.07.3.26.3h.17v.59h-.35c-.52,0-.79-.26-.79-.77Z"/><path class="cls-1" d="m79.81,8.16v-2.97h.7v2.85c0,.19.07.3.26.3h.17v.59h-.35c-.52,0-.79-.26-.79-.77Z"/><path class="cls-1" d="m81.33,8.22c0-.52.38-.76.94-.8l.83-.06v-.1c0-.32-.16-.54-.51-.54-.33,0-.55.15-.55.42h-.74c0-.57.47-.97,1.31-.97.77,0,1.2.37,1.2,1.02v.94c0,.17.06.24.24.24h.12v.57h-.37c-.43,0-.65-.18-.65-.52v-.03h-.03c-.08.28-.38.62-.94.62s-.85-.31-.85-.78Zm1.17.28c.33,0,.62-.23.62-.73l-.56.04c-.36.03-.49.15-.49.35,0,.18.11.34.43.34Z"/><path class="cls-1" d="m84.6,6.25h.71v.62s.02,0,.02,0c.1-.36.35-.7.84-.7.45,0,.69.3.74.73h.03c.05-.34.37-.73.81-.73.61,0,.83.44.83,1.13v1.63h-.71v-1.52c0-.41-.12-.64-.41-.64-.31,0-.51.27-.51.67v1.49h-.73v-1.52c0-.41-.12-.64-.4-.64-.32,0-.52.28-.52.68v1.48h-.71v-2.67Z"/><path class="cls-1" d="m89.17,5.18h.72v.72h-.72v-.72Zm0,1.07h.72v2.67h-.72v-2.67Z"/><path class="cls-1" d="m90.49,8.16v-2.97h.7v2.85c0,.19.07.3.26.3h.17v.59h-.35c-.52,0-.79-.26-.79-.77Z"/><polygon class="cls-1" points="68.45 0 67.05 9.01 68.6 9.01 70.02 0 68.45 0"/><path class="cls-1" d="m9.84,9.04c-.85,0-1.64-.31-2.23-.86-.66-.63-1.01-1.52-1.01-2.59V.02h1.54v5.41c0,.67.19,1.23.55,1.63.32.35.74.54,1.19.54.82,0,1.7-.68,1.7-2.17V.02h1.54v5.56c0,2.37-1.7,3.45-3.28,3.45h0Z"/><path class="cls-1" d="m27.11.03h5.92v1.16h-2.16v7.84s-1.58,0-1.58,0V1.19h-2.18V.03h0Z"/><path class="cls-1" d="m35.99,9.04h-1.6V.02h1.58v9.02s.01,0,.01,0Z"/><path class="cls-1" d="m25.71.02h-.45s-2.23,0-2.23,0h0s-.37,0-.37,0l-1.4,9.01h1.56l.3-1.87h2.1l.3,1.87h1.61L25.71.02Zm-2.42,5.92l.74-4.71h.26l.73,4.71h-1.74,0Z"/><path class="cls-1" d="m63.02.02h-.42s-2.23,0-2.23,0h0s-.4,0-.4,0l-1.4,9.02h1.56l.3-1.87h2.1l.3,1.87h1.61L63.02.02Zm-2.42,5.92l.74-4.71h.26l.73,4.71h-1.74Z"/><path class="cls-1" d="m2.6.02H0v9.01h1.57v-3.73h1.03c1.84,0,3.06-.99,3.06-2.65,0-1.82-1.47-2.63-3.06-2.63Zm0,4.06h-1.02V1.25h1.02c.86-.01,1.48.46,1.48,1.43s-.62,1.41-1.48,1.41Z"/><path class="cls-1" d="m20.27,2.65C20.27.84,18.8.02,17.21.02h-2.6v9.01h1.57v-3.73h.4l2.07,3.73h1.61l-2.11-3.81c1.3-.24,2.12-1.22,2.12-2.57h0Zm-4.08,1.43V1.25h1.02c.86-.01,1.48.46,1.48,1.43s-.62,1.41-1.48,1.41h-1.02Z"/><path class="cls-1" d="m50.66,2.65c0-1.82-1.47-2.63-3.06-2.63h-2.6v9.02h1.57v-3.73h.4l2.07,3.73h1.61l-2.11-3.81c1.3-.24,2.12-1.22,2.12-2.57h0Zm-4.08,1.43V1.24h1.02c.86-.01,1.48.46,1.48,1.43s-.62,1.41-1.48,1.41h-1.02Z"/><path class="cls-1" d="m57.58,2.65c0-1.82-1.47-2.63-3.06-2.63h-2.6v9.02h1.57v-3.73h.4l2.07,3.73h1.61l-2.11-3.81c1.3-.24,2.12-1.22,2.12-2.57h0Zm-4.08,1.43V1.24h1.02c.86-.01,1.48.46,1.48,1.43s-.62,1.41-1.48,1.41h-1.02Z"/><polygon class="cls-1" points="43.66 7.75 43.66 9.04 37.79 9.04 37.79 .02 43.5 .02 43.5 1.31 39.37 1.31 39.37 3.88 43.5 3.88 43.5 5.17 39.37 5.17 39.36 7.75 43.66 7.75"/></g></svg>