<?xml version="1.0" encoding="UTF-8"?><svg id="Layer_2" xmlns="http://www.w3.org/2000/svg" viewBox="0 0 91.12 9.04"><defs><style>.cls-1{fill:#010101;}</style></defs><g id="Layer_1-2"><path class="cls-1" d="m72.72.15h1.04l.96,2.98h.03l.96-2.98h1.04v3.67h-.7l.02-2.74h-.03l-.92,2.74h-.78l-.93-2.74h-.02l.02,2.74h-.7V.15Z"/><path class="cls-1" d="m77.38,3.12c0-.51.37-.75.92-.79l.81-.06v-.1c0-.31-.16-.53-.5-.53-.32,0-.53.15-.53.41h-.72c0-.56.46-.95,1.28-.95.75,0,1.17.36,1.17.99v.92c0,.16.06.23.23.23h.11v.56h-.36c-.42,0-.63-.17-.63-.51v-.03h-.03c-.08.28-.37.6-.91.6s-.83-.31-.83-.76Zm1.14.27c.32,0,.6-.23.6-.71l-.55.04c-.35.03-.48.15-.48.34,0,.17.1.33.42.33Z"/><path class="cls-1" d="m80.56,1.2h.7l-.02.77h.03c.09-.43.24-.82.75-.82.09,0,.16,0,.23.02v.7h-.22c-.45,0-.77.12-.77.92v1.02h-.7V1.2Z"/><path class="cls-1" d="m83.1,3.07v-1.34h-.56v-.52h.56V.47h.7v.73h.73v.52h-.73v1.22c0,.19.1.3.29.3h.44v.58h-.62c-.51,0-.81-.25-.81-.75Z"/><path class="cls-1" d="m85,1.2h.69v2.62h-.69V1.2Zm.44-1.05h.74l-.53.73h-.59l.38-.73Z"/><path class="cls-1" d="m86.35,1.2h.7v.65s.01,0,.01,0c.07-.41.41-.73.86-.73.64,0,.9.4.9,1.12v1.58h-.7v-1.5c0-.4-.19-.62-.51-.62-.36,0-.55.36-.55.74v1.38h-.7V1.2Z"/><path class="cls-1" d="m72.72,5.24h1.04l.96,2.98h.03l.96-2.98h1.04v3.67h-.7l.02-2.74h-.03l-.92,2.74h-.78l-.93-2.74h-.02l.02,2.74h-.7v-3.67Z"/><path class="cls-1" d="m77.35,7.6c0-.85.55-1.39,1.37-1.39s1.37.55,1.37,1.39-.56,1.39-1.37,1.39-1.37-.55-1.37-1.39Zm1.37.8c.36,0,.66-.24.66-.8s-.3-.81-.66-.81-.65.25-.65.81.3.8.65.8Z"/><path class="cls-1" d="m80.6,8.15v-2.91h.69v2.79c0,.19.07.3.26.3h.16v.58h-.34c-.51,0-.76-.25-.76-.75Z"/><path class="cls-1" d="m82.4,8.15v-1.34h-.56v-.52h.56v-.73h.7v.73h.73v.52h-.73v1.22c0,.19.1.3.29.3h.44v.58h-.62c-.51,0-.81-.25-.81-.75Z"/><path class="cls-1" d="m84.15,7.6c0-.87.57-1.39,1.37-1.39s1.33.44,1.33,1.3c0,.11,0,.19-.02.25h-2c.01.48.34.69.71.69.28,0,.52-.12.6-.39h.68c-.1.63-.63.94-1.31.94s-1.35-.46-1.35-1.39Zm1.99-.25c0-.38-.25-.63-.63-.63s-.64.26-.67.63h1.3Z"/><path class="cls-1" d="m87.37,6.29h.7v.65s.01,0,.01,0c.07-.41.41-.73.86-.73.64,0,.9.4.9,1.12v1.58h-.7v-1.5c0-.4-.19-.62-.51-.62-.36,0-.55.36-.55.74v1.38h-.7v-2.62Z"/><path class="cls-1" d="m90.42,5.24h.7v.71h-.7v-.71Zm0,1.05h.7v2.62h-.7v-2.62Z"/><polygon class="cls-1" points="68.45 0 67.05 9.01 68.6 9.01 70.02 0 68.45 0"/><path class="cls-1" d="m9.84,9.04c-.85,0-1.64-.31-2.23-.86-.66-.63-1.01-1.52-1.01-2.59V.02h1.54v5.41c0,.67.19,1.23.55,1.63.32.35.74.54,1.19.54.82,0,1.7-.68,1.7-2.17V.02h1.54v5.56c0,2.37-1.7,3.45-3.28,3.45h0Z"/><path class="cls-1" d="m27.11.03h5.92v1.16h-2.16v7.84s-1.58,0-1.58,0V1.19h-2.18V.03h0Z"/><path class="cls-1" d="m35.99,9.04h-1.6V.02h1.58v9.02s.01,0,.01,0Z"/><path class="cls-1" d="m25.71.02h-.45s-2.23,0-2.23,0h0s-.37,0-.37,0l-1.4,9.01h1.56l.3-1.87h2.1l.3,1.87h1.61L25.71.02Zm-2.42,5.92l.74-4.71h.26l.73,4.71h-1.74,0Z"/><path class="cls-1" d="m63.02.02h-.42s-2.23,0-2.23,0h0s-.4,0-.4,0l-1.4,9.02h1.56l.3-1.87h2.1l.3,1.87h1.61L63.02.02Zm-2.42,5.92l.74-4.71h.26l.73,4.71h-1.74Z"/><path class="cls-1" d="m2.6.02H0v9.01h1.57v-3.73h1.03c1.84,0,3.06-.99,3.06-2.65,0-1.82-1.47-2.63-3.06-2.63Zm0,4.06h-1.02V1.25h1.02c.86-.01,1.48.46,1.48,1.43s-.62,1.41-1.48,1.41Z"/><path class="cls-1" d="m20.27,2.65C20.27.84,18.8.02,17.21.02h-2.6v9.01h1.57v-3.73h.4l2.07,3.73h1.61l-2.11-3.81c1.3-.24,2.12-1.22,2.12-2.57h0Zm-4.08,1.43V1.25h1.02c.86-.01,1.48.46,1.48,1.43s-.62,1.41-1.48,1.41h-1.02Z"/><path class="cls-1" d="m50.66,2.65c0-1.82-1.47-2.63-3.06-2.63h-2.6v9.02h1.57v-3.73h.4l2.07,3.73h1.61l-2.11-3.81c1.3-.24,2.12-1.22,2.12-2.57h0Zm-4.08,1.43V1.24h1.02c.86-.01,1.48.46,1.48,1.43s-.62,1.41-1.48,1.41h-1.02Z"/><path class="cls-1" d="m57.58,2.65c0-1.82-1.47-2.63-3.06-2.63h-2.6v9.02h1.57v-3.73h.4l2.07,3.73h1.61l-2.11-3.81c1.3-.24,2.12-1.22,2.12-2.57h0Zm-4.08,1.43V1.24h1.02c.86-.01,1.48.46,1.48,1.43s-.62,1.41-1.48,1.41h-1.02Z"/><polygon class="cls-1" points="43.66 7.75 43.66 9.04 37.79 9.04 37.79 .02 43.5 .02 43.5 1.31 39.37 1.31 39.37 3.88 43.5 3.88 43.5 5.17 39.37 5.17 39.36 7.75 43.66 7.75"/></g></svg>