<?xml version="1.0" encoding="UTF-8"?><svg id="Layer_2" xmlns="http://www.w3.org/2000/svg" viewBox="0 0 74.05 7.07"><defs><style>.cls-1{fill:#010101;}</style></defs><g id="Layer_1-2"><polygon class="cls-1" points="53.58 0 52.48 7.05 53.7 7.05 54.81 0 53.58 0"/><path class="cls-1" d="m7.7,7.07c-.67,0-1.29-.24-1.75-.67-.52-.49-.79-1.19-.79-2.03V.02h1.21v4.23c0,.52.15.96.43,1.27.25.27.58.42.93.42.64,0,1.33-.53,1.33-1.7V.02h1.21v4.35c0,1.86-1.33,2.7-2.57,2.7h0Z"/><path class="cls-1" d="m21.22.03h4.64v.91h-1.69v6.14s-1.24,0-1.24,0V.93h-1.7V.03h0Z"/><path class="cls-1" d="m28.17,7.07h-1.25V.02h1.24v7.06s.01,0,.01,0Z"/><path class="cls-1" d="m20.12.02h-.35s-1.75,0-1.75,0h0s-.29,0-.29,0l-1.1,7.06h1.22l.23-1.46h1.64l.23,1.46h1.26L20.12.02Zm-1.9,4.64l.58-3.68h.21l.57,3.68h-1.36,0Z"/><path class="cls-1" d="m49.33.02h-.33s-1.75,0-1.75,0h0s-.31,0-.31,0l-1.1,7.06h1.22l.23-1.46h1.64l.23,1.46h1.26L49.33.02Zm-1.9,4.64l.58-3.69h.21l.57,3.69h-1.36Z"/><path class="cls-1" d="m2.04.02H0v7.06h1.23v-2.92h.81c1.44,0,2.4-.77,2.4-2.07,0-1.42-1.15-2.06-2.4-2.06Zm0,3.18h-.8V.97h.8c.68-.01,1.16.36,1.16,1.12s-.48,1.1-1.16,1.1Z"/><path class="cls-1" d="m15.87,2.08C15.87.66,14.72.02,13.47.02h-2.04v7.06h1.23v-2.92h.31l1.62,2.92h1.26l-1.65-2.98c1.02-.19,1.66-.96,1.66-2.01h0Zm-3.2,1.12V.97h.8c.68-.01,1.16.36,1.16,1.12s-.48,1.1-1.16,1.1h-.8Z"/><path class="cls-1" d="m39.65,2.08c0-1.42-1.15-2.06-2.4-2.06h-2.04v7.06h1.23v-2.92h.31l1.62,2.92h1.26l-1.65-2.98c1.02-.19,1.66-.96,1.66-2.01h0Zm-3.2,1.12V.97h.8c.68-.01,1.16.36,1.16,1.12s-.48,1.1-1.16,1.1h-.8Z"/><path class="cls-1" d="m45.07,2.08c0-1.42-1.15-2.06-2.4-2.06h-2.04v7.06h1.23v-2.92h.31l1.62,2.92h1.26l-1.65-2.98c1.02-.19,1.66-.96,1.66-2.01h0Zm-3.2,1.12V.97h.8c.68-.01,1.16.36,1.16,1.12s-.48,1.1-1.16,1.1h-.8Z"/><polygon class="cls-1" points="34.18 6.07 34.18 7.07 29.58 7.07 29.58 .02 34.05 .02 34.05 1.02 30.82 1.02 30.82 3.04 34.05 3.04 34.05 4.05 30.82 4.05 30.81 6.07 34.18 6.07"/><path d="m56.93,6.16c0-.6.43-.87,1.07-.92l.94-.07v-.11c0-.37-.18-.62-.58-.62-.37,0-.62.17-.62.48h-.84c0-.65.54-1.1,1.49-1.1.88,0,1.37.42,1.37,1.16v1.07c0,.19.07.27.27.27h.13v.65h-.42c-.49,0-.74-.2-.74-.6v-.03h-.04c-.09.32-.43.7-1.06.7s-.97-.36-.97-.89Zm1.32.32c.38,0,.7-.26.7-.83l-.63.05c-.4.04-.56.17-.56.4,0,.2.12.38.49.38Z"/><path d="m60.5,5.47c0-.95.53-1.64,1.32-1.64.6,0,.95.43,1.04.76h.04v-1.89h.81v4.27h-.81v-.67s-.03,0-.03,0c-.07.33-.38.76-1.03.76-.79,0-1.36-.66-1.36-1.6Zm1.64.92c.43,0,.79-.29.79-.93s-.36-.95-.79-.95-.8.29-.8.95.36.93.8.93Z"/><path d="m64.46,3.92h.81v.71s.02,0,.02,0c.12-.41.4-.8.95-.8.51,0,.78.34.84.83h.04c.06-.39.42-.83.91-.83.69,0,.95.5.95,1.29v1.86h-.81v-1.74c0-.46-.14-.73-.46-.73-.35,0-.57.3-.57.77v1.7h-.82v-1.74c0-.46-.14-.73-.45-.73-.37,0-.59.32-.59.78v1.69h-.81v-3.05Z"/><path d="m69.66,2.7h.82v.82h-.82v-.82Zm0,1.22h.82v3.05h-.82v-3.05Z"/><path d="m71.18,3.92h.81v.76s.02,0,.02,0c.08-.48.48-.86,1-.86.74,0,1.04.47,1.04,1.3v1.84h-.81v-1.75c0-.47-.22-.72-.6-.72-.42,0-.65.41-.65.87v1.6h-.81v-3.05Z"/></g></svg>