<?xml version="1.0" encoding="UTF-8"?><svg id="Layer_2" xmlns="http://www.w3.org/2000/svg" viewBox="0 0 80.56 8.31"><defs><style>.cls-1{fill:#010101;}</style></defs><g id="Layer_1-2"><path class="cls-1" d="m56.68,5.57c0-.98.65-1.62,1.59-1.62.84,0,1.47.41,1.53,1.3h-.84c-.07-.45-.34-.62-.69-.62-.42,0-.76.29-.76.94s.35.93.76.93c.35,0,.62-.16.69-.61h.84c-.07.89-.7,1.3-1.53,1.3-.95,0-1.59-.63-1.59-1.62Z"/><path class="cls-1" d="m60.29,6.28c0-.6.43-.87,1.07-.91l.95-.07v-.11c0-.36-.18-.61-.58-.61-.37,0-.62.17-.62.47h-.84c0-.64.54-1.1,1.49-1.1.88,0,1.37.42,1.37,1.16v1.06c0,.19.07.27.27.27h.13v.65h-.42c-.49,0-.74-.2-.74-.6v-.03h-.04c-.09.32-.43.7-1.06.7s-.97-.35-.97-.88Zm1.33.32c.38,0,.7-.26.7-.83l-.64.05c-.4.04-.56.17-.56.4,0,.2.12.38.49.38Z"/><path class="cls-1" d="m64.25,6.22v-1.56h-.65v-.61h.65v-.85h.81v.85h.85v.61h-.85v1.42c0,.22.12.35.34.35h.51v.67h-.73c-.59,0-.94-.29-.94-.88Z"/><path class="cls-1" d="m66.26,5.57c0-1.01.67-1.62,1.59-1.62s1.55.51,1.55,1.51c0,.13-.01.22-.02.29h-2.33c.02.56.4.8.82.8.32,0,.61-.13.7-.46h.79c-.12.73-.74,1.09-1.53,1.09s-1.57-.53-1.57-1.62Zm2.31-.29c0-.44-.29-.74-.74-.74s-.75.3-.78.74h1.51Z"/><path class="cls-1" d="m69.96,4.05h.81l-.02.89h.04c.11-.5.28-.95.87-.95.1,0,.18.01.26.02v.81h-.26c-.52,0-.89.14-.89,1.07v1.19h-.81v-3.04Z"/><path class="cls-1" d="m72.42,2.84h.82v.82h-.82v-.82Zm0,1.22h.82v3.04h-.82v-3.04Z"/><path class="cls-1" d="m73.91,4.05h.81v.76s.02,0,.02,0c.08-.47.48-.85,1-.85.75,0,1.04.47,1.04,1.29v1.84h-.81v-1.74c0-.47-.22-.72-.6-.72-.42,0-.65.41-.65.86v1.6h-.81v-3.04Z"/><path class="cls-1" d="m78.08,6.93v-.04c-.45,0-.64-.22-.64-.52s.26-.55.68-.55v-.04c-.47-.04-.71-.4-.71-.8,0-.61.47-1.03,1.47-1.03h.31c.22,0,.42-.11.42-.33v-.19h.85v.11c0,.47-.36.69-.72.69v.03c.21.02.6.27.6.74,0,.68-.61.98-1.39.98h-.38c-.26,0-.38.08-.38.23s.12.23.38.23h.79c.86,0,1.2.38,1.2.84,0,.57-.49,1.02-1.76,1.02s-1.61-.35-1.61-.77.41-.6.88-.61Zm.75.91c.5,0,.83-.13.83-.41s-.31-.35-.82-.35-.83.06-.83.36c0,.27.31.4.82.4Zm.03-2.33h.03c.29,0,.62-.13.62-.51s-.34-.52-.62-.52h-.03c-.29,0-.62.13-.62.52s.34.51.62.51Z"/><polygon class="cls-1" points="53.36 0 52.27 7.02 53.48 7.02 54.59 0 53.36 0"/><path class="cls-1" d="m7.67,7.04c-.66,0-1.28-.24-1.74-.67-.52-.49-.79-1.19-.79-2.02V.02h1.2v4.21c0,.52.15.96.43,1.27.25.27.58.42.93.42.64,0,1.32-.53,1.32-1.69V.02h1.2v4.34c0,1.85-1.32,2.69-2.56,2.69h0Z"/><path class="cls-1" d="m21.14.03h4.62v.9h-1.69v6.11s-1.23,0-1.23,0V.93h-1.7V.03h0Z"/><path class="cls-1" d="m28.06,7.04h-1.24V.02h1.23v7.03s0,0,0,0Z"/><path class="cls-1" d="m20.04.02h-.35s-1.74,0-1.74,0h0s-.29,0-.29,0l-1.09,7.03h1.21l.23-1.46h1.64l.23,1.46h1.25L20.04.02Zm-1.89,4.62l.58-3.67h.21l.57,3.67h-1.36,0Z"/><path class="cls-1" d="m49.13.02h-.33s-1.74,0-1.74,0h0s-.31,0-.31,0l-1.09,7.03h1.21l.23-1.46h1.64l.23,1.46h1.25L49.13.02Zm-1.89,4.62l.58-3.67h.21l.57,3.67h-1.36Z"/><path class="cls-1" d="m2.03.02H0v7.03h1.22v-2.91h.8c1.44,0,2.39-.77,2.39-2.07,0-1.42-1.14-2.05-2.39-2.05Zm0,3.16h-.79V.97h.79c.67,0,1.15.36,1.15,1.11s-.48,1.1-1.15,1.1Z"/><path class="cls-1" d="m15.8,2.07C15.8.65,14.66.02,13.41.02h-2.03v7.03h1.22v-2.91h.31l1.62,2.91h1.25l-1.65-2.97c1.01-.19,1.66-.95,1.66-2.01h0Zm-3.18,1.11V.97h.79c.67,0,1.15.36,1.15,1.11s-.48,1.1-1.15,1.1h-.79Z"/><path class="cls-1" d="m39.49,2.07C39.49.65,38.35.02,37.1.02h-2.03v7.03h1.22v-2.91h.31l1.62,2.91h1.25l-1.65-2.97c1.01-.19,1.66-.95,1.66-2.01h0Zm-3.18,1.11V.97h.79c.67,0,1.15.36,1.15,1.11s-.48,1.1-1.15,1.1h-.79Z"/><path class="cls-1" d="m44.89,2.07C44.89.65,43.75.02,42.5.02h-2.03v7.03h1.22v-2.91h.31l1.62,2.91h1.25l-1.65-2.97c1.01-.19,1.66-.95,1.66-2.01h0Zm-3.18,1.11V.97h.79c.67,0,1.15.36,1.15,1.11s-.48,1.1-1.15,1.1h-.79Z"/><polygon class="cls-1" points="34.04 6.04 34.04 7.04 29.46 7.04 29.46 .02 33.92 .02 33.92 1.02 30.69 1.02 30.69 3.03 33.92 3.03 33.92 4.03 30.69 4.03 30.69 6.04 34.04 6.04"/></g></svg>