<?xml version="1.0" encoding="UTF-8"?><svg id="Layer_2" xmlns="http://www.w3.org/2000/svg" viewBox="0 0 85.48 7.09"><defs><style>.cls-1{fill:#010101;}</style></defs><g id="Layer_1-2"><polygon class="cls-1" points="53.7 0 52.6 7.07 53.82 7.07 54.94 0 53.7 0"/><path class="cls-1" d="m7.72,7.09c-.67,0-1.29-.24-1.75-.68-.52-.49-.79-1.19-.79-2.03V.02h1.21v4.24c0,.52.15.96.43,1.28.25.27.58.43.93.43.64,0,1.33-.53,1.33-1.7V.02h1.21v4.36c0,1.86-1.33,2.71-2.57,2.71h0Z"/><path class="cls-1" d="m21.27.03h4.65v.91h-1.7v6.15s-1.24,0-1.24,0V.94h-1.71V.03h0Z"/><path class="cls-1" d="m28.24,7.09h-1.25V.02h1.24v7.07s.01,0,.01,0Z"/><path class="cls-1" d="m20.17.02h-.35s-1.75,0-1.75,0h0s-.29,0-.29,0l-1.1,7.07h1.22l.23-1.46h1.65l.23,1.46h1.26L20.17.02Zm-1.9,4.65l.58-3.69h.21l.57,3.69h-1.36,0Z"/><path class="cls-1" d="m49.44.02h-.33s-1.75,0-1.75,0h0s-.31,0-.31,0l-1.1,7.07h1.22l.23-1.47h1.65l.23,1.47h1.26L49.44.02Zm-1.9,4.65l.58-3.69h.21l.57,3.69h-1.36Z"/><path class="cls-1" d="m2.04.02H0v7.07h1.23v-2.93h.81c1.44,0,2.4-.78,2.4-2.08,0-1.42-1.15-2.07-2.4-2.07Zm0,3.18h-.8V.98h.8c.68-.01,1.16.36,1.16,1.12s-.48,1.11-1.16,1.11Z"/><path class="cls-1" d="m15.9,2.08C15.9.66,14.75.02,13.5.02h-2.04v7.07h1.23v-2.93h.31l1.63,2.93h1.26l-1.66-2.99c1.02-.19,1.67-.96,1.67-2.02h0Zm-3.2,1.12V.98h.8c.68-.01,1.16.36,1.16,1.12s-.48,1.11-1.16,1.11h-.8Z"/><path class="cls-1" d="m39.74,2.08c0-1.42-1.15-2.07-2.4-2.07h-2.04v7.07h1.23v-2.93h.31l1.63,2.93h1.26l-1.66-2.99c1.02-.19,1.67-.96,1.67-2.02h0Zm-3.2,1.12V.98h.8c.68-.01,1.16.36,1.16,1.12s-.48,1.11-1.16,1.11h-.8Z"/><path class="cls-1" d="m45.17,2.08c0-1.42-1.15-2.07-2.4-2.07h-2.04v7.07h1.23v-2.93h.31l1.63,2.93h1.26l-1.66-2.99c1.02-.19,1.67-.96,1.67-2.02h0Zm-3.2,1.12V.98h.8c.68-.01,1.16.36,1.16,1.12s-.48,1.11-1.16,1.11h-.8Z"/><polygon class="cls-1" points="34.26 6.08 34.26 7.09 29.65 7.09 29.65 .02 34.13 .02 34.13 1.03 30.89 1.03 30.89 3.05 34.13 3.05 34.13 4.06 30.89 4.06 30.88 6.08 34.26 6.08"/><path d="m57.03,5.46c0-.99.65-1.63,1.6-1.63.84,0,1.48.41,1.54,1.31h-.84c-.07-.45-.34-.62-.69-.62-.42,0-.76.29-.76.94s.35.94.76.94c.35,0,.62-.16.69-.61h.84c-.06.9-.7,1.31-1.54,1.31-.95,0-1.6-.64-1.6-1.63Z"/><path d="m60.62,5.46c0-.99.65-1.63,1.6-1.63s1.61.63,1.61,1.63-.65,1.63-1.61,1.63-1.6-.64-1.6-1.63Zm1.6.94c.42,0,.77-.27.77-.94s-.35-.94-.77-.94-.76.29-.76.94.35.94.76.94Z"/><path d="m64.41,3.93h.81v.71s.02,0,.02,0c.12-.42.4-.8.96-.8.51,0,.78.34.84.83h.03c.06-.39.43-.83.92-.83.69,0,.95.51.95,1.29v1.86h-.81v-1.74c0-.47-.14-.73-.47-.73-.35,0-.57.31-.57.77v1.7h-.83v-1.74c0-.47-.14-.73-.45-.73-.37,0-.59.32-.59.78v1.69h-.81v-3.06Z"/><path d="m69.51,5.46c0-1.01.67-1.63,1.6-1.63s1.55.52,1.55,1.52c0,.13-.01.22-.02.29h-2.34c.02.56.4.81.83.81.32,0,.61-.13.7-.46h.79c-.11.73-.74,1.1-1.53,1.1s-1.57-.54-1.57-1.63Zm2.32-.29c0-.45-.29-.74-.74-.74s-.75.3-.78.74h1.52Z"/><path d="m73.23,3.93h.81l-.02.9h.04c.11-.5.28-.95.87-.95.1,0,.18,0,.26.02v.82h-.26c-.52,0-.89.14-.89,1.08v1.19h-.81v-3.06Z"/><path d="m75.44,5.46c0-.99.65-1.63,1.6-1.63.84,0,1.48.41,1.54,1.31h-.84c-.07-.45-.34-.62-.69-.62-.42,0-.76.29-.76.94s.35.94.76.94c.35,0,.62-.16.69-.61h.84c-.06.9-.7,1.31-1.54,1.31-.95,0-1.6-.64-1.6-1.63Z"/><path d="m79.13,2.71h.82v.83h-.82v-.83Zm0,1.22h.82v3.06h-.82v-3.06Z"/><path d="m80.55,6.18c0-.6.43-.88,1.07-.92l.95-.07v-.11c0-.37-.18-.62-.58-.62s-.62.17-.62.48h-.85c0-.64.54-1.1,1.5-1.1.88,0,1.37.42,1.37,1.16v1.07c0,.19.07.27.27.27h.14v.65h-.43c-.49,0-.74-.2-.74-.6v-.03h-.03c-.09.32-.43.7-1.07.7s-.97-.36-.97-.89Zm1.32.32c.38,0,.7-.26.7-.83l-.63.05c-.4.03-.55.17-.55.4,0,.2.12.39.49.39Z"/><path d="m84.19,6.11v-3.4h.8v3.26c0,.22.08.35.3.35h.19v.67h-.4c-.59,0-.9-.29-.9-.88Z"/></g></svg>