<svg width="142" height="142" viewBox="0 0 142 142" fill="none" xmlns="http://www.w3.org/2000/svg">
<path d="M4.89655 0H0V4.89655H4.89655V0Z" fill="black"/>
<path d="M9.7931 0H4.89655V4.89655H9.7931V0Z" fill="black"/>
<path d="M14.6897 0H9.7931V4.89655H14.6897V0Z" fill="black"/>
<path d="M19.5862 0H14.6897V4.89655H19.5862V0Z" fill="black"/>
<path d="M24.4828 0H19.5862V4.89655H24.4828V0Z" fill="black"/>
<path d="M29.3793 0H24.4828V4.89655H29.3793V0Z" fill="black"/>
<path d="M34.2759 0H29.3793V4.89655H34.2759V0Z" fill="black"/>
<path d="M44.069 0H39.1724V4.89655H44.069V0Z" fill="black"/>
<path d="M48.9655 0H44.069V4.89655H48.9655V0Z" fill="black"/>
<path d="M53.8621 0H48.9655V4.89655H53.8621V0Z" fill="black"/>
<path d="M63.6552 0H58.7586V4.89655H63.6552V0Z" fill="black"/>
<path d="M68.5517 0H63.6552V4.89655H68.5517V0Z" fill="black"/>
<path d="M73.4483 0H68.5517V4.89655H73.4483V0Z" fill="black"/>
<path d="M78.3448 0H73.4483V4.89655H78.3448V0Z" fill="black"/>
<path d="M93.0345 0H88.1379V4.89655H93.0345V0Z" fill="black"/>
<path d="M112.621 0H107.724V4.89655H112.621V0Z" fill="black"/>
<path d="M117.517 0H112.621V4.89655H117.517V0Z" fill="black"/>
<path d="M122.414 0H117.517V4.89655H122.414V0Z" fill="black"/>
<path d="M127.31 0H122.414V4.89655H127.31V0Z" fill="black"/>
<path d="M132.207 0H127.31V4.89655H132.207V0Z" fill="black"/>
<path d="M137.103 0H132.207V4.89655H137.103V0Z" fill="black"/>
<path d="M142 0H137.103V4.89655H142V0Z" fill="black"/>
<path d="M4.89655 4.89655H0V9.7931H4.89655V4.89655Z" fill="black"/>
<path d="M34.2759 4.89655H29.3793V9.7931H34.2759V4.89655Z" fill="black"/>
<path d="M48.9655 4.89655H44.069V9.7931H48.9655V4.89655Z" fill="black"/>
<path d="M53.8621 4.89655H48.9655V9.7931H53.8621V4.89655Z" fill="black"/>
<path d="M63.6552 4.89655H58.7586V9.7931H63.6552V4.89655Z" fill="black"/>
<path d="M68.5517 4.89655H63.6552V9.7931H68.5517V4.89655Z" fill="black"/>
<path d="M73.4483 4.89655H68.5517V9.7931H73.4483V4.89655Z" fill="black"/>
<path d="M83.2414 4.89655H78.3448V9.7931H83.2414V4.89655Z" fill="black"/>
<path d="M102.828 4.89655H97.931V9.7931H102.828V4.89655Z" fill="black"/>
<path d="M112.621 4.89655H107.724V9.7931H112.621V4.89655Z" fill="black"/>
<path d="M142 4.89655H137.103V9.7931H142V4.89655Z" fill="black"/>
<path d="M4.89655 9.7931H0V14.6897H4.89655V9.7931Z" fill="black"/>
<path d="M14.6897 9.7931H9.7931V14.6897H14.6897V9.7931Z" fill="black"/>
<path d="M19.5862 9.7931H14.6897V14.6897H19.5862V9.7931Z" fill="black"/>
<path d="M24.4828 9.7931H19.5862V14.6897H24.4828V9.7931Z" fill="black"/>
<path d="M34.2759 9.7931H29.3793V14.6897H34.2759V9.7931Z" fill="black"/>
<path d="M44.069 9.7931H39.1724V14.6897H44.069V9.7931Z" fill="black"/>
<path d="M48.9655 9.7931H44.069V14.6897H48.9655V9.7931Z" fill="black"/>
<path d="M53.8621 9.7931H48.9655V14.6897H53.8621V9.7931Z" fill="black"/>
<path d="M63.6552 9.7931H58.7586V14.6897H63.6552V9.7931Z" fill="black"/>
<path d="M73.4483 9.7931H68.5517V14.6897H73.4483V9.7931Z" fill="black"/>
<path d="M93.0345 9.7931H88.1379V14.6897H93.0345V9.7931Z" fill="black"/>
<path d="M97.931 9.7931H93.0345V14.6897H97.931V9.7931Z" fill="black"/>
<path d="M112.621 9.7931H107.724V14.6897H112.621V9.7931Z" fill="black"/>
<path d="M122.414 9.7931H117.517V14.6897H122.414V9.7931Z" fill="black"/>
<path d="M127.31 9.7931H122.414V14.6897H127.31V9.7931Z" fill="black"/>
<path d="M132.207 9.7931H127.31V14.6897H132.207V9.7931Z" fill="black"/>
<path d="M142 9.7931H137.103V14.6897H142V9.7931Z" fill="black"/>
<path d="M4.89655 14.6897H0V19.5862H4.89655V14.6897Z" fill="black"/>
<path d="M14.6897 14.6897H9.7931V19.5862H14.6897V14.6897Z" fill="black"/>
<path d="M19.5862 14.6897H14.6897V19.5862H19.5862V14.6897Z" fill="black"/>
<path d="M24.4828 14.6897H19.5862V19.5862H24.4828V14.6897Z" fill="black"/>
<path d="M34.2759 14.6897H29.3793V19.5862H34.2759V14.6897Z" fill="black"/>
<path d="M44.069 14.6897H39.1724V19.5862H44.069V14.6897Z" fill="black"/>
<path d="M48.9655 14.6897H44.069V19.5862H48.9655V14.6897Z" fill="black"/>
<path d="M53.8621 14.6897H48.9655V19.5862H53.8621V14.6897Z" fill="black"/>
<path d="M58.7586 14.6897H53.8621V19.5862H58.7586V14.6897Z" fill="black"/>
<path d="M63.6552 14.6897H58.7586V19.5862H63.6552V14.6897Z" fill="black"/>
<path d="M68.5517 14.6897H63.6552V19.5862H68.5517V14.6897Z" fill="black"/>
<path d="M83.2414 14.6897H78.3448V19.5862H83.2414V14.6897Z" fill="black"/>
<path d="M93.0345 14.6897H88.1379V19.5862H93.0345V14.6897Z" fill="black"/>
<path d="M97.931 14.6897H93.0345V19.5862H97.931V14.6897Z" fill="black"/>
<path d="M112.621 14.6897H107.724V19.5862H112.621V14.6897Z" fill="black"/>
<path d="M122.414 14.6897H117.517V19.5862H122.414V14.6897Z" fill="black"/>
<path d="M127.31 14.6897H122.414V19.5862H127.31V14.6897Z" fill="black"/>
<path d="M132.207 14.6897H127.31V19.5862H132.207V14.6897Z" fill="black"/>
<path d="M142 14.6897H137.103V19.5862H142V14.6897Z" fill="black"/>
<path d="M4.89655 19.5862H0V24.4828H4.89655V19.5862Z" fill="black"/>
<path d="M14.6897 19.5862H9.7931V24.4828H14.6897V19.5862Z" fill="black"/>
<path d="M19.5862 19.5862H14.6897V24.4828H19.5862V19.5862Z" fill="black"/>
<path d="M24.4828 19.5862H19.5862V24.4828H24.4828V19.5862Z" fill="black"/>
<path d="M34.2759 19.5862H29.3793V24.4828H34.2759V19.5862Z" fill="black"/>
<path d="M73.4483 19.5862H68.5517V24.4828H73.4483V19.5862Z" fill="black"/>
<path d="M83.2414 19.5862H78.3448V24.4828H83.2414V19.5862Z" fill="black"/>
<path d="M112.621 19.5862H107.724V24.4828H112.621V19.5862Z" fill="black"/>
<path d="M122.414 19.5862H117.517V24.4828H122.414V19.5862Z" fill="black"/>
<path d="M127.31 19.5862H122.414V24.4828H127.31V19.5862Z" fill="black"/>
<path d="M132.207 19.5862H127.31V24.4828H132.207V19.5862Z" fill="black"/>
<path d="M142 19.5862H137.103V24.4828H142V19.5862Z" fill="black"/>
<path d="M4.89655 24.4828H0V29.3793H4.89655V24.4828Z" fill="black"/>
<path d="M34.2759 24.4828H29.3793V29.3793H34.2759V24.4828Z" fill="black"/>
<path d="M44.069 24.4828H39.1724V29.3793H44.069V24.4828Z" fill="black"/>
<path d="M48.9655 24.4828H44.069V29.3793H48.9655V24.4828Z" fill="black"/>
<path d="M53.8621 24.4828H48.9655V29.3793H53.8621V24.4828Z" fill="black"/>
<path d="M58.7586 24.4828H53.8621V29.3793H58.7586V24.4828Z" fill="black"/>
<path d="M73.4483 24.4828H68.5517V29.3793H73.4483V24.4828Z" fill="black"/>
<path d="M83.2414 24.4828H78.3448V29.3793H83.2414V24.4828Z" fill="black"/>
<path d="M88.1379 24.4828H83.2414V29.3793H88.1379V24.4828Z" fill="black"/>
<path d="M93.0345 24.4828H88.1379V29.3793H93.0345V24.4828Z" fill="black"/>
<path d="M97.931 24.4828H93.0345V29.3793H97.931V24.4828Z" fill="black"/>
<path d="M112.621 24.4828H107.724V29.3793H112.621V24.4828Z" fill="black"/>
<path d="M142 24.4828H137.103V29.3793H142V24.4828Z" fill="black"/>
<path d="M4.89655 29.3793H0V34.2759H4.89655V29.3793Z" fill="black"/>
<path d="M9.7931 29.3793H4.89655V34.2759H9.7931V29.3793Z" fill="black"/>
<path d="M14.6897 29.3793H9.7931V34.2759H14.6897V29.3793Z" fill="black"/>
<path d="M19.5862 29.3793H14.6897V34.2759H19.5862V29.3793Z" fill="black"/>
<path d="M24.4828 29.3793H19.5862V34.2759H24.4828V29.3793Z" fill="black"/>
<path d="M29.3793 29.3793H24.4828V34.2759H29.3793V29.3793Z" fill="black"/>
<path d="M34.2759 29.3793H29.3793V34.2759H34.2759V29.3793Z" fill="black"/>
<path d="M44.069 29.3793H39.1724V34.2759H44.069V29.3793Z" fill="black"/>
<path d="M53.8621 29.3793H48.9655V34.2759H53.8621V29.3793Z" fill="black"/>
<path d="M63.6552 29.3793H58.7586V34.2759H63.6552V29.3793Z" fill="black"/>
<path d="M73.4483 29.3793H68.5517V34.2759H73.4483V29.3793Z" fill="black"/>
<path d="M83.2414 29.3793H78.3448V34.2759H83.2414V29.3793Z" fill="black"/>
<path d="M93.0345 29.3793H88.1379V34.2759H93.0345V29.3793Z" fill="black"/>
<path d="M102.828 29.3793H97.931V34.2759H102.828V29.3793Z" fill="black"/>
<path d="M112.621 29.3793H107.724V34.2759H112.621V29.3793Z" fill="black"/>
<path d="M117.517 29.3793H112.621V34.2759H117.517V29.3793Z" fill="black"/>
<path d="M122.414 29.3793H117.517V34.2759H122.414V29.3793Z" fill="black"/>
<path d="M127.31 29.3793H122.414V34.2759H127.31V29.3793Z" fill="black"/>
<path d="M132.207 29.3793H127.31V34.2759H132.207V29.3793Z" fill="black"/>
<path d="M137.103 29.3793H132.207V34.2759H137.103V29.3793Z" fill="black"/>
<path d="M142 29.3793H137.103V34.2759H142V29.3793Z" fill="black"/>
<path d="M44.069 34.2759H39.1724V39.1724H44.069V34.2759Z" fill="black"/>
<path d="M48.9655 34.2759H44.069V39.1724H48.9655V34.2759Z" fill="black"/>
<path d="M53.8621 34.2759H48.9655V39.1724H53.8621V34.2759Z" fill="black"/>
<path d="M58.7586 34.2759H53.8621V39.1724H58.7586V34.2759Z" fill="black"/>
<path d="M63.6552 34.2759H58.7586V39.1724H63.6552V34.2759Z" fill="black"/>
<path d="M73.4483 34.2759H68.5517V39.1724H73.4483V34.2759Z" fill="black"/>
<path d="M78.3448 34.2759H73.4483V39.1724H78.3448V34.2759Z" fill="black"/>
<path d="M88.1379 34.2759H83.2414V39.1724H88.1379V34.2759Z" fill="black"/>
<path d="M97.931 34.2759H93.0345V39.1724H97.931V34.2759Z" fill="black"/>
<path d="M102.828 34.2759H97.931V39.1724H102.828V34.2759Z" fill="black"/>
<path d="M4.89655 39.1724H0V44.069H4.89655V39.1724Z" fill="black"/>
<path d="M9.7931 39.1724H4.89655V44.069H9.7931V39.1724Z" fill="black"/>
<path d="M19.5862 39.1724H14.6897V44.069H19.5862V39.1724Z" fill="black"/>
<path d="M34.2759 39.1724H29.3793V44.069H34.2759V39.1724Z" fill="black"/>
<path d="M39.1724 39.1724H34.2759V44.069H39.1724V39.1724Z" fill="black"/>
<path d="M53.8621 39.1724H48.9655V44.069H53.8621V39.1724Z" fill="black"/>
<path d="M68.5517 39.1724H63.6552V44.069H68.5517V39.1724Z" fill="black"/>
<path d="M78.3448 39.1724H73.4483V44.069H78.3448V39.1724Z" fill="black"/>
<path d="M83.2414 39.1724H78.3448V44.069H83.2414V39.1724Z" fill="black"/>
<path d="M88.1379 39.1724H83.2414V44.069H88.1379V39.1724Z" fill="black"/>
<path d="M93.0345 39.1724H88.1379V44.069H93.0345V39.1724Z" fill="black"/>
<path d="M107.724 39.1724H102.828V44.069H107.724V39.1724Z" fill="black"/>
<path d="M112.621 39.1724H107.724V44.069H112.621V39.1724Z" fill="black"/>
<path d="M117.517 39.1724H112.621V44.069H117.517V39.1724Z" fill="black"/>
<path d="M127.31 39.1724H122.414V44.069H127.31V39.1724Z" fill="black"/>
<path d="M132.207 39.1724H127.31V44.069H132.207V39.1724Z" fill="black"/>
<path d="M142 39.1724H137.103V44.069H142V39.1724Z" fill="black"/>
<path d="M4.89655 44.069H0V48.9655H4.89655V44.069Z" fill="black"/>
<path d="M9.7931 44.069H4.89655V48.9655H9.7931V44.069Z" fill="black"/>
<path d="M24.4828 44.069H19.5862V48.9655H24.4828V44.069Z" fill="black"/>
<path d="M29.3793 44.069H24.4828V48.9655H29.3793V44.069Z" fill="black"/>
<path d="M39.1724 44.069H34.2759V48.9655H39.1724V44.069Z" fill="black"/>
<path d="M44.069 44.069H39.1724V48.9655H44.069V44.069Z" fill="black"/>
<path d="M48.9655 44.069H44.069V48.9655H48.9655V44.069Z" fill="black"/>
<path d="M53.8621 44.069H48.9655V48.9655H53.8621V44.069Z" fill="black"/>
<path d="M58.7586 44.069H53.8621V48.9655H58.7586V44.069Z" fill="black"/>
<path d="M83.2414 44.069H78.3448V48.9655H83.2414V44.069Z" fill="black"/>
<path d="M88.1379 44.069H83.2414V48.9655H88.1379V44.069Z" fill="black"/>
<path d="M93.0345 44.069H88.1379V48.9655H93.0345V44.069Z" fill="black"/>
<path d="M97.931 44.069H93.0345V48.9655H97.931V44.069Z" fill="black"/>
<path d="M102.828 44.069H97.931V48.9655H102.828V44.069Z" fill="black"/>
<path d="M112.621 44.069H107.724V48.9655H112.621V44.069Z" fill="black"/>
<path d="M117.517 44.069H112.621V48.9655H117.517V44.069Z" fill="black"/>
<path d="M122.414 44.069H117.517V48.9655H122.414V44.069Z" fill="black"/>
<path d="M127.31 44.069H122.414V48.9655H127.31V44.069Z" fill="black"/>
<path d="M132.207 44.069H127.31V48.9655H132.207V44.069Z" fill="black"/>
<path d="M137.103 44.069H132.207V48.9655H137.103V44.069Z" fill="black"/>
<path d="M9.7931 48.9655H4.89655V53.8621H9.7931V48.9655Z" fill="black"/>
<path d="M14.6897 48.9655H9.7931V53.8621H14.6897V48.9655Z" fill="black"/>
<path d="M29.3793 48.9655H24.4828V53.8621H29.3793V48.9655Z" fill="black"/>
<path d="M34.2759 48.9655H29.3793V53.8621H34.2759V48.9655Z" fill="black"/>
<path d="M39.1724 48.9655H34.2759V53.8621H39.1724V48.9655Z" fill="black"/>
<path d="M44.069 48.9655H39.1724V53.8621H44.069V48.9655Z" fill="black"/>
<path d="M53.8621 48.9655H48.9655V53.8621H53.8621V48.9655Z" fill="black"/>
<path d="M63.6552 48.9655H58.7586V53.8621H63.6552V48.9655Z" fill="black"/>
<path d="M68.5517 48.9655H63.6552V53.8621H68.5517V48.9655Z" fill="black"/>
<path d="M73.4483 48.9655H68.5517V53.8621H73.4483V48.9655Z" fill="black"/>
<path d="M93.0345 48.9655H88.1379V53.8621H93.0345V48.9655Z" fill="black"/>
<path d="M107.724 48.9655H102.828V53.8621H107.724V48.9655Z" fill="black"/>
<path d="M117.517 48.9655H112.621V53.8621H117.517V48.9655Z" fill="black"/>
<path d="M127.31 48.9655H122.414V53.8621H127.31V48.9655Z" fill="black"/>
<path d="M9.7931 53.8621H4.89655V58.7586H9.7931V53.8621Z" fill="black"/>
<path d="M24.4828 53.8621H19.5862V58.7586H24.4828V53.8621Z" fill="black"/>
<path d="M39.1724 53.8621H34.2759V58.7586H39.1724V53.8621Z" fill="black"/>
<path d="M44.069 53.8621H39.1724V58.7586H44.069V53.8621Z" fill="black"/>
<path d="M63.6552 53.8621H58.7586V58.7586H63.6552V53.8621Z" fill="black"/>
<path d="M78.3448 53.8621H73.4483V58.7586H78.3448V53.8621Z" fill="black"/>
<path d="M83.2414 53.8621H78.3448V58.7586H83.2414V53.8621Z" fill="black"/>
<path d="M102.828 53.8621H97.931V58.7586H102.828V53.8621Z" fill="black"/>
<path d="M122.414 53.8621H117.517V58.7586H122.414V53.8621Z" fill="black"/>
<path d="M127.31 53.8621H122.414V58.7586H127.31V53.8621Z" fill="black"/>
<path d="M137.103 53.8621H132.207V58.7586H137.103V53.8621Z" fill="black"/>
<path d="M4.89655 58.7586H0V63.6552H4.89655V58.7586Z" fill="black"/>
<path d="M14.6897 58.7586H9.7931V63.6552H14.6897V58.7586Z" fill="black"/>
<path d="M24.4828 58.7586H19.5862V63.6552H24.4828V58.7586Z" fill="black"/>
<path d="M34.2759 58.7586H29.3793V63.6552H34.2759V58.7586Z" fill="black"/>
<path d="M48.9655 58.7586H44.069V63.6552H48.9655V58.7586Z" fill="black"/>
<path d="M63.6552 58.7586H58.7586V63.6552H63.6552V58.7586Z" fill="black"/>
<path d="M68.5517 58.7586H63.6552V63.6552H68.5517V58.7586Z" fill="black"/>
<path d="M83.2414 58.7586H78.3448V63.6552H83.2414V58.7586Z" fill="black"/>
<path d="M88.1379 58.7586H83.2414V63.6552H88.1379V58.7586Z" fill="black"/>
<path d="M93.0345 58.7586H88.1379V63.6552H93.0345V58.7586Z" fill="black"/>
<path d="M102.828 58.7586H97.931V63.6552H102.828V58.7586Z" fill="black"/>
<path d="M107.724 58.7586H102.828V63.6552H107.724V58.7586Z" fill="black"/>
<path d="M112.621 58.7586H107.724V63.6552H112.621V58.7586Z" fill="black"/>
<path d="M122.414 58.7586H117.517V63.6552H122.414V58.7586Z" fill="black"/>
<path d="M132.207 58.7586H127.31V63.6552H132.207V58.7586Z" fill="black"/>
<path d="M137.103 58.7586H132.207V63.6552H137.103V58.7586Z" fill="black"/>
<path d="M4.89655 63.6552H0V68.5517H4.89655V63.6552Z" fill="black"/>
<path d="M9.7931 63.6552H4.89655V68.5517H9.7931V63.6552Z" fill="black"/>
<path d="M29.3793 63.6552H24.4828V68.5517H29.3793V63.6552Z" fill="black"/>
<path d="M44.069 63.6552H39.1724V68.5517H44.069V63.6552Z" fill="black"/>
<path d="M48.9655 63.6552H44.069V68.5517H48.9655V63.6552Z" fill="black"/>
<path d="M53.8621 63.6552H48.9655V68.5517H53.8621V63.6552Z" fill="black"/>
<path d="M73.4483 63.6552H68.5517V68.5517H73.4483V63.6552Z" fill="black"/>
<path d="M93.0345 63.6552H88.1379V68.5517H93.0345V63.6552Z" fill="black"/>
<path d="M97.931 63.6552H93.0345V68.5517H97.931V63.6552Z" fill="black"/>
<path d="M102.828 63.6552H97.931V68.5517H102.828V63.6552Z" fill="black"/>
<path d="M117.517 63.6552H112.621V68.5517H117.517V63.6552Z" fill="black"/>
<path d="M127.31 63.6552H122.414V68.5517H127.31V63.6552Z" fill="black"/>
<path d="M132.207 63.6552H127.31V68.5517H132.207V63.6552Z" fill="black"/>
<path d="M4.89655 68.5517H0V73.4483H4.89655V68.5517Z" fill="black"/>
<path d="M19.5862 68.5517H14.6897V73.4483H19.5862V68.5517Z" fill="black"/>
<path d="M24.4828 68.5517H19.5862V73.4483H24.4828V68.5517Z" fill="black"/>
<path d="M34.2759 68.5517H29.3793V73.4483H34.2759V68.5517Z" fill="black"/>
<path d="M48.9655 68.5517H44.069V73.4483H48.9655V68.5517Z" fill="black"/>
<path d="M63.6552 68.5517H58.7586V73.4483H63.6552V68.5517Z" fill="black"/>
<path d="M68.5517 68.5517H63.6552V73.4483H68.5517V68.5517Z" fill="black"/>
<path d="M78.3448 68.5517H73.4483V73.4483H78.3448V68.5517Z" fill="black"/>
<path d="M83.2414 68.5517H78.3448V73.4483H83.2414V68.5517Z" fill="black"/>
<path d="M88.1379 68.5517H83.2414V73.4483H88.1379V68.5517Z" fill="black"/>
<path d="M93.0345 68.5517H88.1379V73.4483H93.0345V68.5517Z" fill="black"/>
<path d="M97.931 68.5517H93.0345V73.4483H97.931V68.5517Z" fill="black"/>
<path d="M102.828 68.5517H97.931V73.4483H102.828V68.5517Z" fill="black"/>
<path d="M112.621 68.5517H107.724V73.4483H112.621V68.5517Z" fill="black"/>
<path d="M117.517 68.5517H112.621V73.4483H117.517V68.5517Z" fill="black"/>
<path d="M132.207 68.5517H127.31V73.4483H132.207V68.5517Z" fill="black"/>
<path d="M4.89655 73.4483H0V78.3448H4.89655V73.4483Z" fill="black"/>
<path d="M19.5862 73.4483H14.6897V78.3448H19.5862V73.4483Z" fill="black"/>
<path d="M29.3793 73.4483H24.4828V78.3448H29.3793V73.4483Z" fill="black"/>
<path d="M39.1724 73.4483H34.2759V78.3448H39.1724V73.4483Z" fill="black"/>
<path d="M44.069 73.4483H39.1724V78.3448H44.069V73.4483Z" fill="black"/>
<path d="M48.9655 73.4483H44.069V78.3448H48.9655V73.4483Z" fill="black"/>
<path d="M63.6552 73.4483H58.7586V78.3448H63.6552V73.4483Z" fill="black"/>
<path d="M73.4483 73.4483H68.5517V78.3448H73.4483V73.4483Z" fill="black"/>
<path d="M83.2414 73.4483H78.3448V78.3448H83.2414V73.4483Z" fill="black"/>
<path d="M93.0345 73.4483H88.1379V78.3448H93.0345V73.4483Z" fill="black"/>
<path d="M117.517 73.4483H112.621V78.3448H117.517V73.4483Z" fill="black"/>
<path d="M122.414 73.4483H117.517V78.3448H122.414V73.4483Z" fill="black"/>
<path d="M127.31 73.4483H122.414V78.3448H127.31V73.4483Z" fill="black"/>
<path d="M9.7931 78.3448H4.89655V83.2414H9.7931V78.3448Z" fill="black"/>
<path d="M14.6897 78.3448H9.7931V83.2414H14.6897V78.3448Z" fill="black"/>
<path d="M24.4828 78.3448H19.5862V83.2414H24.4828V78.3448Z" fill="black"/>
<path d="M29.3793 78.3448H24.4828V83.2414H29.3793V78.3448Z" fill="black"/>
<path d="M34.2759 78.3448H29.3793V83.2414H34.2759V78.3448Z" fill="black"/>
<path d="M39.1724 78.3448H34.2759V83.2414H39.1724V78.3448Z" fill="black"/>
<path d="M53.8621 78.3448H48.9655V83.2414H53.8621V78.3448Z" fill="black"/>
<path d="M58.7586 78.3448H53.8621V83.2414H58.7586V78.3448Z" fill="black"/>
<path d="M68.5517 78.3448H63.6552V83.2414H68.5517V78.3448Z" fill="black"/>
<path d="M73.4483 78.3448H68.5517V83.2414H73.4483V78.3448Z" fill="black"/>
<path d="M78.3448 78.3448H73.4483V83.2414H78.3448V78.3448Z" fill="black"/>
<path d="M88.1379 78.3448H83.2414V83.2414H88.1379V78.3448Z" fill="black"/>
<path d="M93.0345 78.3448H88.1379V83.2414H93.0345V78.3448Z" fill="black"/>
<path d="M102.828 78.3448H97.931V83.2414H102.828V78.3448Z" fill="black"/>
<path d="M107.724 78.3448H102.828V83.2414H107.724V78.3448Z" fill="black"/>
<path d="M117.517 78.3448H112.621V83.2414H117.517V78.3448Z" fill="black"/>
<path d="M122.414 78.3448H117.517V83.2414H122.414V78.3448Z" fill="black"/>
<path d="M127.31 78.3448H122.414V83.2414H127.31V78.3448Z" fill="black"/>
<path d="M132.207 78.3448H127.31V83.2414H132.207V78.3448Z" fill="black"/>
<path d="M142 78.3448H137.103V83.2414H142V78.3448Z" fill="black"/>
<path d="M9.7931 83.2414H4.89655V88.1379H9.7931V83.2414Z" fill="black"/>
<path d="M19.5862 83.2414H14.6897V88.1379H19.5862V83.2414Z" fill="black"/>
<path d="M24.4828 83.2414H19.5862V88.1379H24.4828V83.2414Z" fill="black"/>
<path d="M39.1724 83.2414H34.2759V88.1379H39.1724V83.2414Z" fill="black"/>
<path d="M44.069 83.2414H39.1724V88.1379H44.069V83.2414Z" fill="black"/>
<path d="M63.6552 83.2414H58.7586V88.1379H63.6552V83.2414Z" fill="black"/>
<path d="M68.5517 83.2414H63.6552V88.1379H68.5517V83.2414Z" fill="black"/>
<path d="M97.931 83.2414H93.0345V88.1379H97.931V83.2414Z" fill="black"/>
<path d="M102.828 83.2414H97.931V88.1379H102.828V83.2414Z" fill="black"/>
<path d="M107.724 83.2414H102.828V88.1379H107.724V83.2414Z" fill="black"/>
<path d="M112.621 83.2414H107.724V88.1379H112.621V83.2414Z" fill="black"/>
<path d="M122.414 83.2414H117.517V88.1379H122.414V83.2414Z" fill="black"/>
<path d="M127.31 83.2414H122.414V88.1379H127.31V83.2414Z" fill="black"/>
<path d="M24.4828 88.1379H19.5862V93.0345H24.4828V88.1379Z" fill="black"/>
<path d="M29.3793 88.1379H24.4828V93.0345H29.3793V88.1379Z" fill="black"/>
<path d="M34.2759 88.1379H29.3793V93.0345H34.2759V88.1379Z" fill="black"/>
<path d="M39.1724 88.1379H34.2759V93.0345H39.1724V88.1379Z" fill="black"/>
<path d="M44.069 88.1379H39.1724V93.0345H44.069V88.1379Z" fill="black"/>
<path d="M83.2414 88.1379H78.3448V93.0345H83.2414V88.1379Z" fill="black"/>
<path d="M88.1379 88.1379H83.2414V93.0345H88.1379V88.1379Z" fill="black"/>
<path d="M102.828 88.1379H97.931V93.0345H102.828V88.1379Z" fill="black"/>
<path d="M107.724 88.1379H102.828V93.0345H107.724V88.1379Z" fill="black"/>
<path d="M117.517 88.1379H112.621V93.0345H117.517V88.1379Z" fill="black"/>
<path d="M132.207 88.1379H127.31V93.0345H132.207V88.1379Z" fill="black"/>
<path d="M142 88.1379H137.103V93.0345H142V88.1379Z" fill="black"/>
<path d="M4.89655 93.0345H0V97.931H4.89655V93.0345Z" fill="black"/>
<path d="M19.5862 93.0345H14.6897V97.931H19.5862V93.0345Z" fill="black"/>
<path d="M24.4828 93.0345H19.5862V97.931H24.4828V93.0345Z" fill="black"/>
<path d="M29.3793 93.0345H24.4828V97.931H29.3793V93.0345Z" fill="black"/>
<path d="M39.1724 93.0345H34.2759V97.931H39.1724V93.0345Z" fill="black"/>
<path d="M44.069 93.0345H39.1724V97.931H44.069V93.0345Z" fill="black"/>
<path d="M48.9655 93.0345H44.069V97.931H48.9655V93.0345Z" fill="black"/>
<path d="M63.6552 93.0345H58.7586V97.931H63.6552V93.0345Z" fill="black"/>
<path d="M68.5517 93.0345H63.6552V97.931H68.5517V93.0345Z" fill="black"/>
<path d="M73.4483 93.0345H68.5517V97.931H73.4483V93.0345Z" fill="black"/>
<path d="M83.2414 93.0345H78.3448V97.931H83.2414V93.0345Z" fill="black"/>
<path d="M97.931 93.0345H93.0345V97.931H97.931V93.0345Z" fill="black"/>
<path d="M112.621 93.0345H107.724V97.931H112.621V93.0345Z" fill="black"/>
<path d="M117.517 93.0345H112.621V97.931H117.517V93.0345Z" fill="black"/>
<path d="M127.31 93.0345H122.414V97.931H127.31V93.0345Z" fill="black"/>
<path d="M142 93.0345H137.103V97.931H142V93.0345Z" fill="black"/>
<path d="M4.89655 97.931H0V102.828H4.89655V97.931Z" fill="black"/>
<path d="M14.6897 97.931H9.7931V102.828H14.6897V97.931Z" fill="black"/>
<path d="M34.2759 97.931H29.3793V102.828H34.2759V97.931Z" fill="black"/>
<path d="M48.9655 97.931H44.069V102.828H48.9655V97.931Z" fill="black"/>
<path d="M53.8621 97.931H48.9655V102.828H53.8621V97.931Z" fill="black"/>
<path d="M58.7586 97.931H53.8621V102.828H58.7586V97.931Z" fill="black"/>
<path d="M73.4483 97.931H68.5517V102.828H73.4483V97.931Z" fill="black"/>
<path d="M83.2414 97.931H78.3448V102.828H83.2414V97.931Z" fill="black"/>
<path d="M88.1379 97.931H83.2414V102.828H88.1379V97.931Z" fill="black"/>
<path d="M93.0345 97.931H88.1379V102.828H93.0345V97.931Z" fill="black"/>
<path d="M102.828 97.931H97.931V102.828H102.828V97.931Z" fill="black"/>
<path d="M107.724 97.931H102.828V102.828H107.724V97.931Z" fill="black"/>
<path d="M112.621 97.931H107.724V102.828H112.621V97.931Z" fill="black"/>
<path d="M117.517 97.931H112.621V102.828H117.517V97.931Z" fill="black"/>
<path d="M122.414 97.931H117.517V102.828H122.414V97.931Z" fill="black"/>
<path d="M127.31 97.931H122.414V102.828H127.31V97.931Z" fill="black"/>
<path d="M137.103 97.931H132.207V102.828H137.103V97.931Z" fill="black"/>
<path d="M142 97.931H137.103V102.828H142V97.931Z" fill="black"/>
<path d="M53.8621 102.828H48.9655V107.724H53.8621V102.828Z" fill="black"/>
<path d="M68.5517 102.828H63.6552V107.724H68.5517V102.828Z" fill="black"/>
<path d="M78.3448 102.828H73.4483V107.724H78.3448V102.828Z" fill="black"/>
<path d="M102.828 102.828H97.931V107.724H102.828V102.828Z" fill="black"/>
<path d="M122.414 102.828H117.517V107.724H122.414V102.828Z" fill="black"/>
<path d="M127.31 102.828H122.414V107.724H127.31V102.828Z" fill="black"/>
<path d="M142 102.828H137.103V107.724H142V102.828Z" fill="black"/>
<path d="M4.89655 107.724H0V112.621H4.89655V107.724Z" fill="black"/>
<path d="M9.7931 107.724H4.89655V112.621H9.7931V107.724Z" fill="black"/>
<path d="M14.6897 107.724H9.7931V112.621H14.6897V107.724Z" fill="black"/>
<path d="M19.5862 107.724H14.6897V112.621H19.5862V107.724Z" fill="black"/>
<path d="M24.4828 107.724H19.5862V112.621H24.4828V107.724Z" fill="black"/>
<path d="M29.3793 107.724H24.4828V112.621H29.3793V107.724Z" fill="black"/>
<path d="M34.2759 107.724H29.3793V112.621H34.2759V107.724Z" fill="black"/>
<path d="M44.069 107.724H39.1724V112.621H44.069V107.724Z" fill="black"/>
<path d="M48.9655 107.724H44.069V112.621H48.9655V107.724Z" fill="black"/>
<path d="M58.7586 107.724H53.8621V112.621H58.7586V107.724Z" fill="black"/>
<path d="M68.5517 107.724H63.6552V112.621H68.5517V107.724Z" fill="black"/>
<path d="M73.4483 107.724H68.5517V112.621H73.4483V107.724Z" fill="black"/>
<path d="M78.3448 107.724H73.4483V112.621H78.3448V107.724Z" fill="black"/>
<path d="M93.0345 107.724H88.1379V112.621H93.0345V107.724Z" fill="black"/>
<path d="M97.931 107.724H93.0345V112.621H97.931V107.724Z" fill="black"/>
<path d="M102.828 107.724H97.931V112.621H102.828V107.724Z" fill="black"/>
<path d="M112.621 107.724H107.724V112.621H112.621V107.724Z" fill="black"/>
<path d="M122.414 107.724H117.517V112.621H122.414V107.724Z" fill="black"/>
<path d="M4.89655 112.621H0V117.517H4.89655V112.621Z" fill="black"/>
<path d="M34.2759 112.621H29.3793V117.517H34.2759V112.621Z" fill="black"/>
<path d="M48.9655 112.621H44.069V117.517H48.9655V112.621Z" fill="black"/>
<path d="M78.3448 112.621H73.4483V117.517H78.3448V112.621Z" fill="black"/>
<path d="M83.2414 112.621H78.3448V117.517H83.2414V112.621Z" fill="black"/>
<path d="M88.1379 112.621H83.2414V117.517H88.1379V112.621Z" fill="black"/>
<path d="M93.0345 112.621H88.1379V117.517H93.0345V112.621Z" fill="black"/>
<path d="M97.931 112.621H93.0345V117.517H97.931V112.621Z" fill="black"/>
<path d="M102.828 112.621H97.931V117.517H102.828V112.621Z" fill="black"/>
<path d="M122.414 112.621H117.517V117.517H122.414V112.621Z" fill="black"/>
<path d="M127.31 112.621H122.414V117.517H127.31V112.621Z" fill="black"/>
<path d="M132.207 112.621H127.31V117.517H132.207V112.621Z" fill="black"/>
<path d="M4.89655 117.517H0V122.414H4.89655V117.517Z" fill="black"/>
<path d="M14.6897 117.517H9.7931V122.414H14.6897V117.517Z" fill="black"/>
<path d="M19.5862 117.517H14.6897V122.414H19.5862V117.517Z" fill="black"/>
<path d="M24.4828 117.517H19.5862V122.414H24.4828V117.517Z" fill="black"/>
<path d="M34.2759 117.517H29.3793V122.414H34.2759V117.517Z" fill="black"/>
<path d="M48.9655 117.517H44.069V122.414H48.9655V117.517Z" fill="black"/>
<path d="M53.8621 117.517H48.9655V122.414H53.8621V117.517Z" fill="black"/>
<path d="M58.7586 117.517H53.8621V122.414H58.7586V117.517Z" fill="black"/>
<path d="M73.4483 117.517H68.5517V122.414H73.4483V117.517Z" fill="black"/>
<path d="M83.2414 117.517H78.3448V122.414H83.2414V117.517Z" fill="black"/>
<path d="M93.0345 117.517H88.1379V122.414H93.0345V117.517Z" fill="black"/>
<path d="M97.931 117.517H93.0345V122.414H97.931V117.517Z" fill="black"/>
<path d="M102.828 117.517H97.931V122.414H102.828V117.517Z" fill="black"/>
<path d="M107.724 117.517H102.828V122.414H107.724V117.517Z" fill="black"/>
<path d="M112.621 117.517H107.724V122.414H112.621V117.517Z" fill="black"/>
<path d="M117.517 117.517H112.621V122.414H117.517V117.517Z" fill="black"/>
<path d="M122.414 117.517H117.517V122.414H122.414V117.517Z" fill="black"/>
<path d="M127.31 117.517H122.414V122.414H127.31V117.517Z" fill="black"/>
<path d="M137.103 117.517H132.207V122.414H137.103V117.517Z" fill="black"/>
<path d="M142 117.517H137.103V122.414H142V117.517Z" fill="black"/>
<path d="M4.89655 122.414H0V127.31H4.89655V122.414Z" fill="black"/>
<path d="M14.6897 122.414H9.7931V127.31H14.6897V122.414Z" fill="black"/>
<path d="M19.5862 122.414H14.6897V127.31H19.5862V122.414Z" fill="black"/>
<path d="M24.4828 122.414H19.5862V127.31H24.4828V122.414Z" fill="black"/>
<path d="M34.2759 122.414H29.3793V127.31H34.2759V122.414Z" fill="black"/>
<path d="M44.069 122.414H39.1724V127.31H44.069V122.414Z" fill="black"/>
<path d="M63.6552 122.414H58.7586V127.31H63.6552V122.414Z" fill="black"/>
<path d="M83.2414 122.414H78.3448V127.31H83.2414V122.414Z" fill="black"/>
<path d="M88.1379 122.414H83.2414V127.31H88.1379V122.414Z" fill="black"/>
<path d="M102.828 122.414H97.931V127.31H102.828V122.414Z" fill="black"/>
<path d="M107.724 122.414H102.828V127.31H107.724V122.414Z" fill="black"/>
<path d="M112.621 122.414H107.724V127.31H112.621V122.414Z" fill="black"/>
<path d="M117.517 122.414H112.621V127.31H117.517V122.414Z" fill="black"/>
<path d="M127.31 122.414H122.414V127.31H127.31V122.414Z" fill="black"/>
<path d="M137.103 122.414H132.207V127.31H137.103V122.414Z" fill="black"/>
<path d="M4.89655 127.31H0V132.207H4.89655V127.31Z" fill="black"/>
<path d="M14.6897 127.31H9.7931V132.207H14.6897V127.31Z" fill="black"/>
<path d="M19.5862 127.31H14.6897V132.207H19.5862V127.31Z" fill="black"/>
<path d="M24.4828 127.31H19.5862V132.207H24.4828V127.31Z" fill="black"/>
<path d="M34.2759 127.31H29.3793V132.207H34.2759V127.31Z" fill="black"/>
<path d="M53.8621 127.31H48.9655V132.207H53.8621V127.31Z" fill="black"/>
<path d="M63.6552 127.31H58.7586V132.207H63.6552V127.31Z" fill="black"/>
<path d="M68.5517 127.31H63.6552V132.207H68.5517V127.31Z" fill="black"/>
<path d="M73.4483 127.31H68.5517V132.207H73.4483V127.31Z" fill="black"/>
<path d="M88.1379 127.31H83.2414V132.207H88.1379V127.31Z" fill="black"/>
<path d="M93.0345 127.31H88.1379V132.207H93.0345V127.31Z" fill="black"/>
<path d="M97.931 127.31H93.0345V132.207H97.931V127.31Z" fill="black"/>
<path d="M102.828 127.31H97.931V132.207H102.828V127.31Z" fill="black"/>
<path d="M107.724 127.31H102.828V132.207H107.724V127.31Z" fill="black"/>
<path d="M122.414 127.31H117.517V132.207H122.414V127.31Z" fill="black"/>
<path d="M132.207 127.31H127.31V132.207H132.207V127.31Z" fill="black"/>
<path d="M4.89655 132.207H0V137.103H4.89655V132.207Z" fill="black"/>
<path d="M34.2759 132.207H29.3793V137.103H34.2759V132.207Z" fill="black"/>
<path d="M44.069 132.207H39.1724V137.103H44.069V132.207Z" fill="black"/>
<path d="M53.8621 132.207H48.9655V137.103H53.8621V132.207Z" fill="black"/>
<path d="M68.5517 132.207H63.6552V137.103H68.5517V132.207Z" fill="black"/>
<path d="M73.4483 132.207H68.5517V137.103H73.4483V132.207Z" fill="black"/>
<path d="M78.3448 132.207H73.4483V137.103H78.3448V132.207Z" fill="black"/>
<path d="M83.2414 132.207H78.3448V137.103H83.2414V132.207Z" fill="black"/>
<path d="M88.1379 132.207H83.2414V137.103H88.1379V132.207Z" fill="black"/>
<path d="M107.724 132.207H102.828V137.103H107.724V132.207Z" fill="black"/>
<path d="M112.621 132.207H107.724V137.103H112.621V132.207Z" fill="black"/>
<path d="M122.414 132.207H117.517V137.103H122.414V132.207Z" fill="black"/>
<path d="M137.103 132.207H132.207V137.103H137.103V132.207Z" fill="black"/>
<path d="M142 132.207H137.103V137.103H142V132.207Z" fill="black"/>
<path d="M4.89655 137.103H0V142H4.89655V137.103Z" fill="black"/>
<path d="M9.7931 137.103H4.89655V142H9.7931V137.103Z" fill="black"/>
<path d="M14.6897 137.103H9.7931V142H14.6897V137.103Z" fill="black"/>
<path d="M19.5862 137.103H14.6897V142H19.5862V137.103Z" fill="black"/>
<path d="M24.4828 137.103H19.5862V142H24.4828V137.103Z" fill="black"/>
<path d="M29.3793 137.103H24.4828V142H29.3793V137.103Z" fill="black"/>
<path d="M34.2759 137.103H29.3793V142H34.2759V137.103Z" fill="black"/>
<path d="M44.069 137.103H39.1724V142H44.069V137.103Z" fill="black"/>
<path d="M48.9655 137.103H44.069V142H48.9655V137.103Z" fill="black"/>
<path d="M58.7586 137.103H53.8621V142H58.7586V137.103Z" fill="black"/>
<path d="M68.5517 137.103H63.6552V142H68.5517V137.103Z" fill="black"/>
<path d="M73.4483 137.103H68.5517V142H73.4483V137.103Z" fill="black"/>
<path d="M107.724 137.103H102.828V142H107.724V137.103Z" fill="black"/>
<path d="M117.517 137.103H112.621V142H117.517V137.103Z" fill="black"/>
<path d="M127.31 137.103H122.414V142H127.31V137.103Z" fill="black"/>
<path d="M132.207 137.103H127.31V142H132.207V137.103Z" fill="black"/>
</svg>
